# xmcd CD database file
#
# Track frame offsets:
#	182
#	18605
#	40905
#	69010
#	96260
#	120330
#	145767
#	166462
#	193727
#
# Disc length: 2960 seconds
#
# Revision: 2
# Processed by: cddbd v1.5.2PL0 Copyright (c) Steve Scherf et al.
# Submitted via: CDex 1.79
#
DISCID=730b8e09
DTITLE=Level 42 - Running In The Family
DYEAR=1987
DGENRE=Rock
TTITLE0=Lessons In Love
TTITLE1=Children Say
TTITLE2=Running In The Family
TTITLE3=It's Over
TTITLE4=To Be With You Again
TTITLE5=Two Solitudes (Everyone's Love In The Air)
TTITLE6=Fashion Fever
TTITLE7=The Sleepwalkers (Tunnel Visions)
TTITLE8=Freedom Someday
EXTD=YEAR: 1987
EXTT0=
EXTT1=
EXTT2=
EXTT3=
EXTT4=
EXTT5=
EXTT6=
EXTT7=
EXTT8=
PLAYORDER=
